<?xml version="1.0" standalone="no"?>
<!DOCTYPE svg PUBLIC "-//W3C//DTD SVG 1.1//EN" "http://www.w3.org/Graphics/SVG/1.1/DTD/svg11.dtd" >
<svg xmlns="http://www.w3.org/2000/svg">
<metadata>
This is a custom SVG webfont generated by Font Squirrel.
Copyright   : TrueType conversion  2003 codeman38
</metadata>
<defs>
<font id="KongtextRegular" horiz-adv-x="2048" >
<font-face units-per-em="2048" ascent="1792" descent="-256" />
<missing-glyph horiz-adv-x="500" />
<glyph unicode=" " />
<glyph unicode="!" d="M768 0v256h512v-256h-512zM768 512v1024h512v-1024h-512z" />
<glyph unicode="&#x22;" d="M512 768v768h256v-768h-256zM1280 768v768h256v-768h-256z" />
<glyph unicode="#" d="M256 512v256h256v256h-256v256h256v256h256v-256h512v256h256v-256h256v-256h-256v-256h256v-256h-256v-256h-256v256h-512v-256h-256v256h-256zM768 768h512v256h-512v-256z" />
<glyph unicode="$" d="M256 256v256h1280v256h-1024v256h-256v256h256v256h256v256h512v-256h512v-256h-1280v-256h1024v-256h256v-256h-256v-256h-256v-256h-512v256h-512z" />
<glyph unicode="%" d="M0 0v256h256v256h256v256h256v256h256v256h256v256h256v256h256v-512h-256v-256h-256v-256h-256v-256h-256v-256h-256v-256h-512zM256 1280v512h512v-512h-512zM1280 0v512h512v-512h-512z" />
<glyph unicode="&#x26;" d="M0 256v256h256v256h256v256h-256v256h256v256h768v-256h256v-256h512v-256h-256v-512h256v-256h-512v256h-256v-256h-1024v256h-256zM512 256h768v256h-256v256h-256v-256h-256v-256zM768 1024h256v256h-256v-256zM1280 768h256v256h-256v-256z" />
<glyph unicode="'" d="M768 768v256h256v512h512v-512h-256v-256h-512z" />
<glyph unicode="(" d="M768 256v1024h256v256h512v-256h-256v-1024h256v-256h-512v256h-256z" />
<glyph unicode=")" d="M768 0v256h256v1024h-256v256h512v-256h256v-1024h-256v-256h-512z" />
<glyph unicode="*" d="M256 256v512h256v256h-256v512h512v-256h256v256h512v-512h-256v-256h256v-512h-512v256h-256v-256h-512z" />
<glyph unicode="+" d="M256 768v256h512v512h512v-512h512v-256h-512v-512h-512v512h-512z" />
<glyph unicode="," d="M768 0v256h256v512h512v-512h-256v-256h-512z" />
<glyph unicode="-" d="M256 768v256h1536v-256h-1536z" />
<glyph unicode="." d="M768 0v512h512v-512h-512z" />
<glyph unicode="/" d="M256 256v512h256v256h256v256h256v256h512v-256h-256v-256h-256v-256h-256v-256h-256v-256h-256z" />
<glyph unicode="0" d="M256 256v1024h256v256h1024v-256h256v-1024h-256v-256h-1024v256h-256zM768 256h512v512h-256v256h256v256h-512v-512h256v-256h-256v-256z" />
<glyph unicode="1" d="M512 0v256h256v768h-256v256h256v256h512v-1280h256v-256h-1024z" />
<glyph unicode="2" d="M256 0v512h256v256h768v512h-512v-256h-512v256h256v256h1024v-256h256v-512h-256v-256h-768v-256h1024v-256h-1536z" />
<glyph unicode="3" d="M256 256v256h512v-256h512v512h-256v256h256v256h-512v-256h-512v256h256v256h1024v-256h256v-256h-256v-256h256v-512h-256v-256h-1024v256h-256z" />
<glyph unicode="4" d="M256 512v1024h512v-768h256v512h512v-512h256v-256h-256v-512h-512v512h-768z" />
<glyph unicode="5" d="M256 256v256h512v-256h512v512h-1024v768h1536v-256h-1280v-256h1024v-256h256v-512h-256v-256h-1024v256h-256z" />
<glyph unicode="6" d="M256 256v1024h256v256h1024v-256h-768v-256h768v-256h256v-512h-256v-256h-1024v256h-256zM768 256h512v512h-512v-512z" />
<glyph unicode="7" d="M256 1280v256h1536v-256h-256v-512h-256v-768h-512v768h256v512h-768z" />
<glyph unicode="8" d="M256 256v512h256v256h-256v256h256v256h1024v-256h256v-256h-256v-256h256v-512h-256v-256h-1024v256h-256zM768 256h512v512h-512v-512zM768 1024h512v256h-512v-256z" />
<glyph unicode="9" d="M256 768v512h256v256h1024v-256h256v-1024h-256v-256h-1024v256h768v256h-768v256h-256zM768 768h512v512h-512v-512z" />
<glyph unicode=":" d="M768 256v512h512v-512h-512zM768 1024v512h512v-512h-512z" />
<glyph unicode=";" d="M768 0v768h512v-512h-256v-256h-256zM768 1024v512h512v-512h-512z" />
<glyph unicode="&#x3c;" d="M512 768v256h256v256h256v256h512v-256h-256v-256h-256v-256h256v-256h256v-256h-512v256h-256v256h-256z" />
<glyph unicode="=" d="M512 256v512h1280v-512h-1280zM512 1024v512h1280v-512h-1280z" />
<glyph unicode="&#x3e;" d="M512 256v256h256v256h256v256h-256v256h-256v256h512v-256h256v-256h256v-256h-256v-256h-256v-256h-512z" />
<glyph unicode="?" d="M256 1024v256h256v256h1024v-256h256v-512h-256v-256h-768v256h512v512h-512v-256h-512zM768 0v256h512v-256h-512z" />
<glyph unicode="@" d="M256 256v1024h256v256h1024v-256h256v-512h-256v-256h-512v512h256v256h-512v-1024h1024v-256h-1280v256h-256z" />
<glyph unicode="A" d="M256 0v1280h256v256h1024v-256h256v-1280h-512v512h-512v-512h-512zM768 768h512v512h-512v-512z" />
<glyph unicode="B" d="M256 0v1536h1280v-256h256v-256h-256v-256h256v-512h-256v-256h-1280zM768 256h512v512h-512v-512zM768 1024h512v256h-512v-256z" />
<glyph unicode="C" d="M256 256v1024h256v256h1024v-256h256v-256h-512v256h-512v-1024h512v256h512v-256h-256v-256h-1024v256h-256z" />
<glyph unicode="D" d="M256 0v1536h1280v-256h256v-1024h-256v-256h-1280zM768 256h512v1024h-512v-1024z" />
<glyph unicode="E" d="M256 0v1536h1536v-256h-1024v-256h512v-256h-512v-512h1024v-256h-1536z" />
<glyph unicode="F" d="M256 0v1536h1536v-256h-1024v-256h512v-256h-512v-768h-512z" />
<glyph unicode="G" d="M256 256v1024h256v256h1024v-256h256v-256h-512v256h-512v-1024h512v256h-256v256h768v-512h-256v-256h-1024v256h-256z" />
<glyph unicode="H" d="M256 0v1536h512v-512h512v512h512v-1536h-512v768h-512v-768h-512z" />
<glyph unicode="I" d="M512 0v256h256v1024h-256v256h1024v-256h-256v-1024h256v-256h-1024z" />
<glyph unicode="J" d="M256 256v256h512v-256h256v1024h-512v256h1280v-256h-256v-1024h-256v-256h-768v256h-256z" />
<glyph unicode="K" d="M256 0v1536h512v-512h256v256h256v256h512v-256h-256v-256h-256v-512h256v-256h256v-256h-512v256h-256v256h-256v-512h-512z" />
<glyph unicode="L" d="M256 0v1536h512v-1280h768v-256h-1280z" />
<glyph unicode="M" d="M256 0v1536h512v-256h256v-256h256v256h256v256h512v-1536h-512v768h-256v-256h-256v256h-256v-768h-512z" />
<glyph unicode="N" d="M256 0v1536h512v-256h256v-256h256v512h512v-1536h-512v256h-256v256h-256v-512h-512z" />
<glyph unicode="O" d="M256 256v1024h256v256h1024v-256h256v-1024h-256v-256h-1024v256h-256zM768 256h512v1024h-512v-1024z" />
<glyph unicode="P" d="M256 0v1536h1280v-256h256v-512h-256v-256h-768v-512h-512zM768 768h512v512h-512v-512z" />
<glyph unicode="Q" d="M256 256v1024h256v256h1024v-256h256v-768h-256v-256h256v-256h-256v256h-256v-256h-768v256h-256zM768 256h256v256h256v768h-512v-1024z" />
<glyph unicode="R" d="M256 0v1536h1280v-256h256v-512h-256v-256h256v-512h-512v512h-512v-512h-512zM768 768h512v512h-512v-512z" />
<glyph unicode="S" d="M256 256v256h512v-256h512v512h-768v256h-256v256h256v256h1024v-256h256v-256h-256v-256h256v-512h-256v-256h-1024v256h-256zM768 1024h768v256h-768v-256z" />
<glyph unicode="T" d="M256 1280v256h1536v-256h-512v-1280h-512v1280h-512z" />
<glyph unicode="U" d="M256 256v1280h512v-1280h512v1280h512v-1280h-256v-256h-1024v256h-256z" />
<glyph unicode="V" d="M256 512v1024h512v-1024h512v1024h512v-1024h-256v-256h-256v-256h-512v256h-256v256h-256z" />
<glyph unicode="W" d="M256 0v1536h512v-768h256v256h256v-256h256v768h512v-1536h-512v256h-256v256h-256v-256h-256v-256h-512z" />
<glyph unicode="X" d="M256 0v512h256v256h256v256h-256v256h-256v256h512v-256h512v256h512v-256h-256v-256h-256v-256h256v-256h256v-512h-256v256h-256v256h-512v-256h-256v-256h-256z" />
<glyph unicode="Y" d="M256 1024v512h512v-512h512v512h512v-512h-256v-256h-256v-768h-512v768h-256v256h-256z" />
<glyph unicode="Z" d="M256 0v512h256v256h256v256h256v256h-768v256h1536v-256h-256v-256h-256v-256h-256v-256h-256v-256h1024v-256h-1536z" />
<glyph unicode="[" d="M768 0v1536h768v-256h-256v-1024h256v-256h-768z" />
<glyph unicode="\" d="M256 1280v256h512v-256h256v-256h256v-256h256v-512h-256v256h-256v256h-256v256h-256v256h-256z" />
<glyph unicode="]" d="M768 0v256h256v1024h-256v256h768v-1536h-768z" />
<glyph unicode="^" d="M512 1280v256h256v256h768v-256h256v-256h-512v256h-256v-256h-512z" />
<glyph unicode="_" d="M256 0v256h1536v-256h-1536z" />
<glyph unicode="`" d="M512 1024v512h512v-512h256v-256h-512v256h-256z" />
<glyph unicode="a" d="M256 256v768h256v256h1280v-1024h256v-256h-512v256h-256v-256h-768v256h-256zM768 256h512v768h-512v-768z" />
<glyph unicode="b" d="M256 0v1792h512v-512h768v-256h256v-768h-256v-256h-1280zM768 256h512v768h-512v-768z" />
<glyph unicode="c" d="M256 256v768h256v256h1024v-256h256v-256h-512v256h-512v-768h512v256h512v-256h-256v-256h-1024v256h-256z" />
<glyph unicode="d" d="M256 256v768h256v256h768v512h512v-1792h-1280v256h-256zM768 256h512v768h-512v-768z" />
<glyph unicode="e" d="M256 256v768h256v256h1024v-256h256v-256h-256v-256h-768v-256h1024v-256h-1280v256h-256zM768 768h512v256h-512v-256z" />
<glyph unicode="f" d="M512 768v256h256v256h256v256h768v-256h-512v-256h256v-256h-256v-768h-512v768h-256z" />
<glyph unicode="g" d="M256 512v512h256v256h1280v-1280h-256v-256h-1024v256h768v256h-768v256h-256zM768 512h512v512h-512v-512z" />
<glyph unicode="h" d="M256 0v1792h512v-512h768v-256h256v-1024h-512v1024h-512v-1024h-512z" />
<glyph unicode="i" d="M768 0v1280h512v-1280h-512zM768 1536v256h512v-256h-512z" />
<glyph unicode="j" d="M256 0v256h512v-256h256v1280h512v-1280h-256v-256h-768v256h-256zM1024 1536v256h512v-256h-512z" />
<glyph unicode="k" d="M256 0v1792h512v-768h512v256h512v-256h-256v-256h-256v-256h256v-256h256v-256h-512v256h-256v256h-256v-512h-512z" />
<glyph unicode="l" d="M512 256v1536h512v-1536h512v-256h-768v256h-256z" />
<glyph unicode="m" d="M0 0v1280h768v-256h256v256h512v-256h256v-1024h-512v1024h-256v-1024h-256v1024h-256v-1024h-512z" />
<glyph unicode="n" d="M256 0v1280h1280v-256h256v-1024h-512v1024h-512v-1024h-512z" />
<glyph unicode="o" d="M256 256v768h256v256h1024v-256h256v-768h-256v-256h-1024v256h-256zM768 256h512v768h-512v-768z" />
<glyph unicode="p" d="M256 -256v1536h1280v-256h256v-512h-256v-256h-768v-512h-512zM768 512h512v512h-512v-512z" />
<glyph unicode="q" d="M256 512v512h256v256h1280v-1024h256v-256h-256v-256h-512v512h-768v256h-256zM768 512h512v512h-512v-512z" />
<glyph unicode="r" d="M256 0v1280h512v-256h256v256h512v-256h256v-256h-512v256h-256v-256h-256v-768h-512z" />
<glyph unicode="s" d="M256 0v256h1024v256h-768v256h-256v256h256v256h1024v-256h-768v-256h768v-256h256v-256h-256v-256h-1280z" />
<glyph unicode="t" d="M256 1024v256h256v256h512v-256h512v-256h-512v-768h256v256h512v-256h-256v-256h-768v256h-256v768h-256z" />
<glyph unicode="u" d="M256 256v1024h512v-1024h512v1024h512v-1024h256v-256h-512v256h-256v-256h-768v256h-256z" />
<glyph unicode="v" d="M256 512v768h512v-768h512v768h512v-768h-256v-256h-256v-256h-512v256h-256v256h-256z" />
<glyph unicode="w" d="M256 256v1024h512v-1024h256v1024h256v-1024h256v1024h512v-1280h-768v256h-256v-256h-512v256h-256z" />
<glyph unicode="x" d="M256 0v512h256v256h-256v512h512v-256h512v256h512v-512h-256v-256h256v-512h-512v256h-512v-256h-512z" />
<glyph unicode="y" d="M256 512v768h512v-768h512v768h512v-1280h-256v-256h-1024v256h768v256h-768v256h-256z" />
<glyph unicode="z" d="M256 0v256h256v256h256v256h256v256h-768v256h1536v-256h-256v-256h-256v-256h-256v-256h768v-256h-1536z" />
<glyph unicode="{" d="M256 768v256h512v256h256v256h512v-256h-256v-256h-256v-256h256v-512h256v-256h-512v256h-256v512h-512z" />
<glyph unicode="|" d="M768 0v1536h512v-1536h-512z" />
<glyph unicode="}" d="M512 0v256h256v512h256v256h-256v256h-256v256h512v-256h256v-256h512v-256h-512v-512h-256v-256h-512z" />
<glyph unicode="~" d="M256 768v256h256v256h512v-256h256v-256h256v256h256v-256h-256v-256h-512v256h-256v256h-256v-256h-256z" />
<glyph unicode="&#xa0;" />
<glyph unicode="&#xa1;" />
<glyph unicode="&#xa2;" />
<glyph unicode="&#xa3;" />
<glyph unicode="&#xa4;" />
<glyph unicode="&#xa5;" />
<glyph unicode="&#xa6;" />
<glyph unicode="&#xa7;" />
<glyph unicode="&#xa8;" />
<glyph unicode="&#xa9;" d="M0 512v768h256v256h256v256h768v-256h256v-256h256v-768h-256v-256h-256v-256h-768v256h-256v256h-256zM256 512h256v-256h768v256h256v768h-256v256h-768v-256h-256v-768zM512 512v768h768v-256h-512v-256h512v-256h-768z" />
<glyph unicode="&#xaa;" />
<glyph unicode="&#xab;" />
<glyph unicode="&#xac;" />
<glyph unicode="&#xad;" />
<glyph unicode="&#xae;" />
<glyph unicode="&#xaf;" />
<glyph unicode="&#xb0;" />
<glyph unicode="&#xb1;" />
<glyph unicode="&#xb2;" />
<glyph unicode="&#xb3;" />
<glyph unicode="&#xb4;" />
<glyph unicode="&#xb5;" />
<glyph unicode="&#xb6;" />
<glyph unicode="&#xb7;" />
<glyph unicode="&#xb8;" />
<glyph unicode="&#xb9;" />
<glyph unicode="&#xba;" />
<glyph unicode="&#xbb;" />
<glyph unicode="&#xbc;" />
<glyph unicode="&#xbd;" />
<glyph unicode="&#xbe;" />
<glyph unicode="&#xbf;" />
<glyph unicode="&#xc0;" />
<glyph unicode="&#xc1;" />
<glyph unicode="&#xc2;" />
<glyph unicode="&#xc3;" />
<glyph unicode="&#xc4;" />
<glyph unicode="&#xc5;" />
<glyph unicode="&#xc6;" />
<glyph unicode="&#xc7;" />
<glyph unicode="&#xc8;" />
<glyph unicode="&#xc9;" />
<glyph unicode="&#xca;" />
<glyph unicode="&#xcb;" />
<glyph unicode="&#xcc;" />
<glyph unicode="&#xcd;" />
<glyph unicode="&#xce;" />
<glyph unicode="&#xcf;" />
<glyph unicode="&#xd0;" />
<glyph unicode="&#xd1;" />
<glyph unicode="&#xd2;" />
<glyph unicode="&#xd3;" />
<glyph unicode="&#xd4;" />
<glyph unicode="&#xd5;" />
<glyph unicode="&#xd6;" />
<glyph unicode="&#xd7;" />
<glyph unicode="&#xd8;" />
<glyph unicode="&#xd9;" />
<glyph unicode="&#xda;" />
<glyph unicode="&#xdb;" />
<glyph unicode="&#xdc;" />
<glyph unicode="&#xdd;" />
<glyph unicode="&#xde;" />
<glyph unicode="&#xdf;" d="M256 -256v1536h256v256h768v-256h256v-512h256v-512h-256v-256h-512v256h256v512h-256v256h256v256h-512v-1536h-512z" />
<glyph unicode="&#xe0;" d="M512 256v512h256v256h1024v-768h256v-256h-512v256h-256v-256h-512v256h-256zM768 1536v256h512v-256h256v-256h-512v256h-256zM1024 256h256v512h-256v-512z" />
<glyph unicode="&#xe1;" />
<glyph unicode="&#xe2;" d="M512 256v512h256v256h1024v-768h256v-256h-512v256h-256v-256h-512v256h-256zM768 1280v256h256v256h768v-256h256v-256h-512v256h-256v-256h-512zM1024 256h256v512h-256v-512z" />
<glyph unicode="&#xe3;" />
<glyph unicode="&#xe4;" d="M256 256v768h256v256h1280v-1024h256v-256h-512v256h-256v-256h-768v256h-256zM768 256h512v768h-512v-768zM768 1536v256h256v-256h-256zM1280 1536v256h256v-256h-256z" />
<glyph unicode="&#xe5;" />
<glyph unicode="&#xe6;" />
<glyph unicode="&#xe7;" d="M256 512v512h256v256h1024v-256h-768v-512h768v-256h-256v-512h-512v256h256v256h-512v256h-256z" />
<glyph unicode="&#xe8;" d="M256 256v512h256v256h768v-256h256v-256h-512v-256h768v-256h-1280v256h-256zM512 1536v256h512v-256h256v-256h-512v256h-256zM768 512h256v256h-256v-256z" />
<glyph unicode="&#xe9;" d="M256 256v512h256v256h768v-256h256v-256h-512v-256h768v-256h-1280v256h-256zM512 1280v256h256v256h512v-256h-256v-256h-512zM768 512h256v256h-256v-256z" />
<glyph unicode="&#xea;" d="M256 256v512h256v256h768v-256h256v-256h-512v-256h768v-256h-1280v256h-256zM256 1280v256h256v256h768v-256h256v-256h-512v256h-256v-256h-512zM768 512h256v256h-256v-256z" />
<glyph unicode="&#xeb;" />
<glyph unicode="&#xec;" />
<glyph unicode="&#xed;" />
<glyph unicode="&#xee;" d="M512 1280v256h256v256h768v-256h256v-256h-512v256h-256v-256h-512zM768 0v1024h512v-1024h-512z" />
<glyph unicode="&#xef;" d="M512 1536v256h256v-256h-256zM768 0v1280h512v-1280h-512zM1280 1536v256h256v-256h-256z" />
<glyph unicode="&#xf0;" />
<glyph unicode="&#xf1;" />
<glyph unicode="&#xf2;" />
<glyph unicode="&#xf3;" />
<glyph unicode="&#xf4;" d="M256 256v512h256v256h1024v-256h256v-512h-256v-256h-1024v256h-256zM512 1280v256h256v256h768v-256h256v-256h-512v256h-256v-256h-512zM768 256h512v512h-512v-512z" />
<glyph unicode="&#xf5;" />
<glyph unicode="&#xf6;" d="M256 256v768h256v256h1024v-256h256v-768h-256v-256h-1024v256h-256zM512 1536v256h256v-256h-256zM768 256h512v768h-512v-768zM1280 1536v256h256v-256h-256z" />
<glyph unicode="&#xf7;" />
<glyph unicode="&#xf8;" />
<glyph unicode="&#xf9;" d="M256 256v768h512v-768h512v768h512v-768h256v-256h-512v256h-256v-256h-768v256h-256zM512 1536v256h512v-256h256v-256h-512v256h-256z" />
<glyph unicode="&#xfa;" />
<glyph unicode="&#xfb;" d="M256 256v768h512v-768h512v768h512v-768h256v-256h-512v256h-256v-256h-768v256h-256zM512 1280v256h256v256h768v-256h256v-256h-512v256h-256v-256h-512z" />
<glyph unicode="&#xfc;" d="M256 256v1024h512v-1024h512v1024h512v-1280h-1280v256h-256zM512 1536v256h256v-256h-256zM1280 1536v256h256v-256h-256z" />
<glyph unicode="&#xfd;" />
<glyph unicode="&#xfe;" />
<glyph unicode="&#xff;" />
<glyph unicode="&#x152;" />
<glyph unicode="&#x153;" />
<glyph unicode="&#x178;" />
<glyph unicode="&#x2c6;" />
<glyph unicode="&#x2dc;" />
<glyph unicode="&#x2000;" horiz-adv-x="896" />
<glyph unicode="&#x2001;" horiz-adv-x="1792" />
<glyph unicode="&#x2002;" horiz-adv-x="896" />
<glyph unicode="&#x2003;" horiz-adv-x="1792" />
<glyph unicode="&#x2004;" horiz-adv-x="596" />
<glyph unicode="&#x2005;" horiz-adv-x="448" />
<glyph unicode="&#x2006;" horiz-adv-x="298" />
<glyph unicode="&#x2007;" horiz-adv-x="298" />
<glyph unicode="&#x2008;" horiz-adv-x="224" />
<glyph unicode="&#x2009;" horiz-adv-x="358" />
<glyph unicode="&#x200a;" horiz-adv-x="98" />
<glyph unicode="&#x2010;" d="M256 768v256h1536v-256h-1536z" />
<glyph unicode="&#x2011;" d="M256 768v256h1536v-256h-1536z" />
<glyph unicode="&#x2012;" d="M256 768v256h1536v-256h-1536z" />
<glyph unicode="&#x2013;" />
<glyph unicode="&#x2014;" />
<glyph unicode="&#x2018;" />
<glyph unicode="&#x2019;" />
<glyph unicode="&#x201a;" />
<glyph unicode="&#x201c;" />
<glyph unicode="&#x201d;" />
<glyph unicode="&#x201e;" />
<glyph unicode="&#x2022;" />
<glyph unicode="&#x2026;" />
<glyph unicode="&#x202f;" horiz-adv-x="358" />
<glyph unicode="&#x2039;" />
<glyph unicode="&#x203a;" />
<glyph unicode="&#x205f;" horiz-adv-x="448" />
<glyph unicode="&#x20ac;" />
<glyph unicode="&#x2122;" d="M0 1536v256h768v-256h-256v-512h-256v512h-256zM768 512v768h1280v-768h-256v512h-256v-256h-256v256h-256v-512h-256z" />
<glyph unicode="&#xe000;" horiz-adv-x="1280" d="M0 1280h1280v-1280h-1280v1280z" />
<glyph unicode="&#xfb01;" horiz-adv-x="4096" d="M2816 0v1280h512v-1280h-512zM2816 1536v256h512v-256h-512zM512 768v256h256v256h256v256h768v-256h-512v-256h256v-256h-256v-768h-512v768h-256z" />
<glyph unicode="&#xfb02;" horiz-adv-x="4096" d="M2560 256v1536h512v-1536h512v-256h-768v256h-256zM512 768v256h256v256h256v256h768v-256h-512v-256h256v-256h-256v-768h-512v768h-256z" />
<glyph unicode="&#xfb03;" horiz-adv-x="6144" d="M4864 0v1280h512v-1280h-512zM4864 1536v256h512v-256h-512zM2560 768v256h256v256h256v256h768v-256h-512v-256h256v-256h-256v-768h-512v768h-256zM512 768v256h256v256h256v256h768v-256h-512v-256h256v-256h-256v-768h-512v768h-256z" />
<glyph unicode="&#xfb04;" horiz-adv-x="6144" d="M4608 256v1536h512v-1536h512v-256h-768v256h-256zM2560 768v256h256v256h256v256h768v-256h-512v-256h256v-256h-256v-768h-512v768h-256zM512 768v256h256v256h256v256h768v-256h-512v-256h256v-256h-256v-768h-512v768h-256z" />
</font>
</defs>
</svg>
